<svg id="Layer_1" data-name="Layer 1" xmlns="http://www.w3.org/2000/svg" viewBox="0 0 117.99 128.79"><defs><style>.cls-1{fill:#101063;}</style></defs><title>icon-08</title><path class="cls-1" d="M588.45,383.89a.2.2,0,0,0-.29.12c-2.11,4.42-4.48,8.66-6.86,12.93S577,405.67,574.83,410c0,0,0,0,0,0a.17.17,0,0,0,0,.08.15.15,0,0,0,0,.08.23.23,0,0,0,.17.09.16.16,0,0,0,.09,0c3.29-.61,6.39-2.12,9.6-3a61,61,0,0,0,8.89-2.77.23.23,0,0,0,.07-.35c-1.3-1.46-2.43-3-3.66-4.56,1.57-1.33,3.11-2.7,4.68-4h0a.18.18,0,0,0,.07-.14.21.21,0,0,0,0-.12v0l-.05,0s0,0,0,0c-2.53-1.2-5.22-2-7.81-3a63.94,63.94,0,0,1,1.77-8A.19.19,0,0,0,588.45,383.89Zm-10.79,22.21.11-.18h0l.32,0L578,406s0-.06-.05,0A3,3,0,0,1,577.67,406.09ZM578,406h0Zm-.09,0v0h-.05Zm-.37.24.32-.12-.06.07a2.29,2.29,0,0,1-.31.13Zm0,.29,0,0-.12,0h-.06Zm-.11,1.73.29.13.1.12-.45-.2L577,408l.14-.18.27.34s0,0,0,0l0,0,.08.1-.14-.06C577.38,408.22,577.35,408.31,577.4,408.33Zm.11.4-.32-.14c-.12-.14-.22-.28-.33-.42l.1-.12.27.33a0,0,0,0,0,0,.06l0,0Zm0-.6,0,0,.5.21.08.1Zm-.06-.15s0,0,0,0l-.23-.29.17-.22c.18.22.35.44.51.66Zm-.27-1.18.16,0-.08.1-.17.07Zm-.16.26.12,0,0,0-.12,0Zm-.12.19.09,0,0,0-.08,0Zm-.1.16,0,0-.16.21h0Zm0,.82.21.27-.18-.08s-.1,0-.05.07l.37.18.12.14-.42-.17-.19-.24Zm.07.56-.07,0-.06-.08.06,0Zm-.26-.32.08.1-.06,0h0l0,0Zm-.08.1.11.13h0c-.06,0-.09.07,0,.08l.17.06,0,0-.33-.09,0-.05Zm-.14.29.16.21h0l-.15-.21Zm-.11,0,.1.13-.12,0s0,0,0,0v0Zm-.15.18,0,.06h0s-.06,0,0,.06l0,0Zm-.23.29h0Zm-.52.65.3-.38.07,0,0,0A1.47,1.47,0,0,0,575.38,410Zm.53-.41-.1,0,0-.05.05-.07.11.13Zm0-.14h0Zm.07.08h0Zm0-.15-.08-.1.05-.06.17.2Zm.27,0-.19-.22.15,0,.13.14Zm.18-.06-.06-.06.12,0Zm-.17-.19-.09-.12.24.08.08.11Zm.38.12-.08-.11h0l.07.08Zm.13,0h0Zm.17,0-.29-.1-.17-.21.36.12.15.18Zm.15,0-.09-.11.1,0,.06.06Zm-.09-.32-.06-.06.4.17,0,0Zm.55.21h0l0,0,.09,0Zm.2-.05-.36-.13-.11-.13.28.11.08.1s.08,0,.07,0l.17.06Zm.26-.07-.38-.15-.23-.28q.42.2.84.36Zm.37-.11-.5-.2s0,0,0,0l-.07-.09.68.27Zm.25-.08q-.48-.17-.94-.38l-.07-.08a8.91,8.91,0,0,0,1,.46Zm.14,0a5.84,5.84,0,0,1-.66-.27,0,0,0,0,0,0-.06h0c.24.11.48.22.72.31Zm.21-.07a10.59,10.59,0,0,1-1-.41l-.08-.1c.4.14.79.3,1.18.47Zm5.76-1.85a5.34,5.34,0,0,1-.8-.39,7,7,0,0,1,.86.38Zm2.51-.7-.49-.29a5.09,5.09,0,0,0,.54.28Zm4.13-3.89a10.9,10.9,0,0,1,1.21,1.44l-.29-.22c-.26-.22-.69-.52-.76-.89,0-.06-.1,0-.09,0a1.48,1.48,0,0,0,.54.72c.21.19.44.35.66.52a.69.69,0,0,1,0,.17c-.5-.43-1-.82-1.52-1.26,0,0-.09,0,0,.07.51.44,1.05.85,1.56,1.29a.47.47,0,0,1-.09.22c-.67-.45-1.27-1-1.91-1.47,0,0-.1,0-.05.07.64.48,1.24,1,1.91,1.47a1,1,0,0,1-.26.18c-.69-.51-1.31-1.1-2-1.64,0,0-.09,0-.05.07.65.53,1.27,1.1,1.94,1.61l-.1,0-.09,0a8.71,8.71,0,0,1-1.79-1.53s-.11,0-.07.06a8.85,8.85,0,0,0,1.75,1.5l-.1,0a7.76,7.76,0,0,1-1.92-1.55,0,0,0,0,0-.07.06,7.76,7.76,0,0,0,1.88,1.52l-.3.1s.08-.06,0-.08a4.43,4.43,0,0,1-1.88-1.54s-.11,0-.08,0a4.5,4.5,0,0,0,1.93,1.59l-.7.24a6.67,6.67,0,0,1-2-1.6s-.1,0-.07.06a6.69,6.69,0,0,0,2,1.58l-.4.13a14.71,14.71,0,0,1-1.92-1.46s-.11,0-.07.06a14.33,14.33,0,0,0,1.89,1.44l-.15,0h0c-.57-.32-1.06-.77-1.64-1.1,0,0-.1,0,0,.07.55.31,1,.74,1.58,1.06l-.29.08-1.48-.93s-.1,0-.05.07l1.42.89h0l-1.32-.81s-.1,0-.05.07l1.26.77-.11,0a7.62,7.62,0,0,1-1.67-1.14s-.11,0-.07.06a7.75,7.75,0,0,0,1.62,1.11l-.17,0a10.09,10.09,0,0,1-1.56-1s-.09,0,0,.07a10,10,0,0,0,1.49,1l-.11,0a11.68,11.68,0,0,1-1.68-1s-.1,0,0,.07a11.86,11.86,0,0,0,1.61,1l-.25.07c-.42-.25-.84-.51-1.26-.75,0,0-.1,0-.05.07.4.23.79.48,1.2.71l-.08,0c-.38-.24-.77-.45-1.15-.7,0,0-.1,0,0,.07.35.23.72.44,1.08.66l-.15,0a9.47,9.47,0,0,1-1.46-.93s-.09,0-.05.07a9,9,0,0,0,1.39.89l-.14,0s0,0,0,0a9.71,9.71,0,0,1-1.5-.94s-.09,0,0,.07a9.44,9.44,0,0,0,1.45.91l-.14,0s0-.05,0-.07c-.5-.21-.92-.55-1.4-.78,0,0-.06,0,0,.06l-.1-.06a0,0,0,0,0-.05.07,12.86,12.86,0,0,0,1.39.84l-.1,0c-.45-.24-.9-.48-1.33-.76,0,0-.1,0-.05.07.41.26.83.49,1.26.72l-.08,0c-.34-.2-.69-.41-1-.58-.05,0-.08.06,0,.08.33.16.64.35,1,.54l-.08,0c-.37-.21-.74-.42-1.1-.65a0,0,0,0,0,0,.07c.33.21.68.41,1,.61l-.17,0c-.31-.15-.6-.32-.9-.48-.05,0-.1,0,0,.07l.82.44-.13,0c-.32-.18-.66-.34-1-.5-.05,0-.08.06,0,.08.3.15.61.29.91.46l-.07,0c-.33-.16-.67-.32-1-.49-.05,0-.1,0-.05.07.3.16.61.31.91.45l-.08,0-.76-.39c-.05,0-.1,0-.05.07l.68.36-.1,0a9.86,9.86,0,0,1-1.23-.62s-.1,0,0,.07a10.11,10.11,0,0,0,1.14.59l-.12,0c-.36-.19-.75-.34-1.1-.55-.05,0-.1,0-.05.07.33.2.68.34,1,.52l-.16,0a6,6,0,0,0-1.13-.47s0,0,0,0l-.2-.12s-.1,0-.05.07a7.17,7.17,0,0,0,1.11.59l-.08,0a6.12,6.12,0,0,1-.85-.41s-.1,0-.05.07a6.62,6.62,0,0,0,.77.38l-.12,0a5.33,5.33,0,0,1-.9-.48s-.1,0,0,.07a4.88,4.88,0,0,0,.82.45l-.15,0a4,4,0,0,1-.79-.39s-.1,0-.05.07a4,4,0,0,0,.71.36l-.21.07-.27-.1-.84-.45c-.05,0-.1,0-.05.07l.1.06s0,0,0,0l.75.37.14.07-.19.06a6.37,6.37,0,0,1-.78-.37,0,0,0,0,0-.05.06l-.06,0c-.05,0-.1,0-.05.07l.69.35-.15,0a8.85,8.85,0,0,1-.88-.39c-.05,0-.08.06,0,.08.26.13.51.24.78.35l-.35.11c-.26-.11-.53-.22-.79-.35-.05,0-.08.06,0,.08.23.11.46.2.69.31l-.12,0-.66-.29a0,0,0,0,0,0,.08l.56.24-.16.05c-.31-.13-.62-.27-.93-.38a0,0,0,1,0,0,.08c.28.1.55.22.83.34l-.24.08-.91-.34c-.05,0-.09.07,0,.08l.8.3-.26.09c-.29-.12-.59-.25-.89-.35a0,0,0,0,0,0,.08l.79.31-.34.11c-.26-.1-.52-.2-.77-.31-.05,0-.08.06,0,.08l.67.27h0c-.2-.08-.39-.17-.6-.24a0,0,0,0,0,0,.08l.49.2-.1,0c-.22-.1-.44-.19-.67-.26a0,0,0,0,0,0,.09l.58.22-.06,0a4.79,4.79,0,0,1-1-.47,0,0,0,0,0,0,.07,4.63,4.63,0,0,0,.56.32l.32.13-.26.09c-.38-.15-.76-.34-1.15-.47a0,0,0,0,0,0,.08c.36.12.7.28,1,.43l-.29.1c-.45-.19-.9-.39-1.37-.54h0l-.47-.6.3-.38a8.07,8.07,0,0,0,.76,1.16s.11,0,.07-.06a8.13,8.13,0,0,1-.78-1.17l.21-.26c.24.34.46.7.67,1.05,0,0,.11,0,.08,0-.22-.37-.44-.74-.69-1.09l.37-.44c.31.49.62,1,.92,1.47,0,0,.11,0,.08,0-.31-.5-.63-1-.94-1.5l.14-.17a10.53,10.53,0,0,1,.8,1.08s.11,0,.08,0a10.67,10.67,0,0,0-.83-1.12l.21-.25a6.15,6.15,0,0,1,.83,1.07s.1,0,.07-.06a6.38,6.38,0,0,0-.84-1.08l.21-.26a6.33,6.33,0,0,0,.74,1s.11,0,.07-.06a6.42,6.42,0,0,1-.75-1l.09-.11a6.87,6.87,0,0,0,.89,1s.11,0,.07-.06a7,7,0,0,1-.9-1.06l.05-.06a5,5,0,0,0,.77.92s.11,0,.07-.06a4.65,4.65,0,0,1-.77-.93l.08-.09c.27.34.52.7.82,1,0,0,.11,0,.07-.06-.3-.33-.56-.69-.83-1l.12-.15a9.79,9.79,0,0,0,.81,1s.11,0,.07-.06a9.61,9.61,0,0,1-.82-1l.08-.09a10.53,10.53,0,0,0,.73.93s.11,0,.07-.06a8.08,8.08,0,0,1-.58-.73c.25.26.56.5.68.61s.11,0,.07-.06a7,7,0,0,1-.84-.83l.25-.31c.26.34.54.67.79,1,0,0,.1,0,.07-.06-.25-.36-.54-.69-.8-1l.16-.19a13.65,13.65,0,0,0,.88,1.2s.1,0,.07-.06a13.41,13.41,0,0,1-.89-1.21l.28-.33a13.89,13.89,0,0,1,1,1.41s.1,0,.07-.06a13,13,0,0,0-1-1.42l.29-.33c.32.4.64.81.92,1.24,0,0,.1,0,.07-.06-.29-.43-.61-.84-.93-1.25l.18-.2a6.92,6.92,0,0,0,.79,1.18s.11,0,.07-.06a7.33,7.33,0,0,1-.79-1.2l.15-.17c.31.4.59.82.89,1.22,0,0,.1,0,.07-.06-.31-.41-.58-.84-.9-1.23l.14-.16a6.91,6.91,0,0,1,.78,1.16s.11,0,.08,0a6.68,6.68,0,0,0-.8-1.18l.23-.26A8.54,8.54,0,0,0,583,403s.11,0,.07-.06a8.67,8.67,0,0,1-.87-1.15l.12-.14c.28.33.51.69.78,1,0,0,.1,0,.07-.06-.28-.34-.51-.7-.79-1l.31-.36c.25.36.49.73.74,1.1,0,0,.1,0,.07-.06-.25-.37-.5-.74-.75-1.11l.25-.28c.22.37.44.74.68,1.09,0,0,.1,0,.07-.06-.25-.36-.47-.73-.69-1.1l.22-.26a4.19,4.19,0,0,0,.58,1s.1,0,.07-.06a4,4,0,0,1-.58-1l.12-.14a7,7,0,0,0,.8,1.23s.1,0,.07-.06a7,7,0,0,1-.81-1.24l.1-.12c.26.39.47.81.73,1.2,0,0,.1,0,.07-.06-.26-.39-.48-.82-.74-1.21l.11-.12a4.82,4.82,0,0,0,.66,1.1s.1,0,.07-.06a4.25,4.25,0,0,1-.66-1.12l.07-.08a12.66,12.66,0,0,0,.77,1.2s.11,0,.08,0a10.53,10.53,0,0,1-.78-1.23l.28-.3c.16.42.45.78.65,1.18,0,.05.1,0,.08,0a12.83,12.83,0,0,1-.65-1.22l.29-.32a4.6,4.6,0,0,0,.68,1.28s.1,0,.07-.06a4.24,4.24,0,0,1-.68-1.31l.19-.21a1.69,1.69,0,0,0,.29.59c.22.34.46.66.69,1,0,0,.1,0,.07-.06-.17-.24-.35-.48-.51-.72s-.5-.65-.44-.91l.09-.1a4.78,4.78,0,0,0,.93,1.39s.1,0,.07-.06a4.42,4.42,0,0,1-.93-1.41l.21-.24a12.09,12.09,0,0,0,.93,1.35s.1,0,.07-.06a11.11,11.11,0,0,1-.93-1.37l.27-.3a7.66,7.66,0,0,0,1.25,2s.11,0,.07-.06-1.39-1.83-1.24-1.94a0,0,0,0,0,0-.06l.1-.11.06.08a13.85,13.85,0,0,0,1.2,1.5s.11,0,.07-.06a6.82,6.82,0,0,1-.89-1.06s-.25-.35-.36-.55l.25-.27a6.62,6.62,0,0,0,1.07,1.58,0,0,0,0,0,.07-.06,6.48,6.48,0,0,1-1.08-1.59l.18-.2a0,0,0,0,0,0,.06c.31.4.58.82.92,1.19,0,0,.11,0,.07-.06-.34-.37-.62-.79-.92-1.19a0,0,0,0,0-.06,0l.17-.19C588.66,398.26,589.93,400.3,591.45,402.21Zm-1.8-3.08.26,0-.17.15Zm3.77-3.06c-.62.18-1.26.26-1.89.39a0,0,0,0,0,0,.09c.57-.11,1.15-.2,1.72-.34l-.17.14-1.71.32a0,0,0,0,0,0,.09l1.55-.29-.11.09-1.61.3a0,0,0,0,0,0,.09l1.46-.27-.09.07c-.52.13-1,.24-1.57.37-.06,0,0,.1,0,.09.47-.12.93-.22,1.4-.33l-.19.16a4.5,4.5,0,0,1-1.53.27,0,0,0,0,0,0,.09,4.08,4.08,0,0,0,1.38-.23l-.17.15a11.65,11.65,0,0,1-1.38.19c-.06,0,0,.09,0,.09.41,0,.83-.08,1.23-.16l-.12.11a6.27,6.27,0,0,1-1.4.22c-.06,0-.06.09,0,.09a6.49,6.49,0,0,0,1.25-.18l-.21.19a11,11,0,0,1-1.31.27c-.06,0,0,.1,0,.09a10.06,10.06,0,0,0,1.14-.23l-.28.24c-.36.07-.71.14-1.06.24-.06,0,0,.1,0,.09.3-.08.6-.14.9-.2l-.25.22a3.89,3.89,0,0,1-.68.08c-.06,0-.07.09,0,.09a4.3,4.3,0,0,0,.56-.05l-.12.1a5.4,5.4,0,0,1-.61.1c-.06,0,0,.09,0,.09s.31-.05.47-.08L590,399a3.33,3.33,0,0,1-.45.07,23.49,23.49,0,0,0-1.7-1.85c-.12-.11-.93-.53-.45-.63.79-.15,1.58-.29,2.37-.4,1.25-.18,2.5-.32,3.75-.45l-.66.19a2.4,2.4,0,0,1-1,.22c-.05,0-.06.08,0,.09a2.09,2.09,0,0,0,.94-.19,8,8,0,0,0,1-.31Zm.42-.77c-.69-.33-2.55.21-3.31.32-1.3.18-2.6.4-3.89.66h-.06l-.06,0,0,0h0c-2.84,3.07-5.64,6.23-8.31,9.48,0-.05-.09-.06-.09,0s-.06,0-.12,0l.19-.07h0l.12,0s0-.09,0-.08a.31.31,0,0,0-.13.05s0,0,0,0-.07,0-.12,0l-.07,0,.08-.12.29-.1c.05,0,0-.1,0-.08l-.1,0,.29-.17s0-.11,0-.08l-.24.13.11-.17.29-.13s0-.11,0-.08l-.16.07,0-.06.4-.16c.05,0,0-.11,0-.08l-.27.11h0l.38-.17a0,0,0,0,0,0-.08l-.24.11.06-.09a3.51,3.51,0,0,0,.4-.14c.05,0,0-.1,0-.08a2.4,2.4,0,0,1-.28.1l.08-.11a2.53,2.53,0,0,0,.49-.17,0,0,0,0,0,0-.08,2.55,2.55,0,0,1-.37.14l.08-.12a1.89,1.89,0,0,0,.34-.1c.05,0,0-.1,0-.08l-.22.07.08-.13.38-.06a0,0,0,0,0,0-.09l-.29,0,.09-.13a2.59,2.59,0,0,0,.53-.12c.05,0,0-.1,0-.08a2.32,2.32,0,0,1-.43.1l.14-.2.37-.07a0,0,0,0,0,0-.09l-.27.05.06-.08a3.77,3.77,0,0,1,.56-.11c.06,0,0-.1,0-.09l-.46.08.12-.17.41-.12c.05,0,0-.1,0-.08l-.29.09.15-.21.59-.15c.05,0,0-.1,0-.09l-.49.13.09-.12a3,3,0,0,0,.61-.16c.05,0,0-.1,0-.08a3.14,3.14,0,0,1-.5.14l.19-.26.71-.13c.06,0,0-.1,0-.09l-.62.12,0,0,.67-.15c.05,0,0-.1,0-.09l-.58.13.14-.2h0c.25-.06.49-.1.74-.14.06,0,0-.1,0-.09-.23,0-.45.08-.68.13l.09-.12,0,0,.63-.13c.06,0,0-.1,0-.09l-.54.11.05-.08h0a3.81,3.81,0,0,1,.67-.14c.06,0,0-.1,0-.09a4.5,4.5,0,0,0-.61.13l.21-.31a1.63,1.63,0,0,1,.74-.1,0,0,0,0,0,0-.09,1.87,1.87,0,0,0-.67.08l.19-.28h0a2.4,2.4,0,0,1,.8-.13c.06,0,.07-.09,0-.09a2.77,2.77,0,0,0-.75.12l.22-.32a5.11,5.11,0,0,0,.76-.11c.06,0,0-.1,0-.09a5.16,5.16,0,0,1-.68.1l.41-.6a1.48,1.48,0,0,0,.73-.06c.06,0,0-.1,0-.09a1.47,1.47,0,0,1-.66.06v0c.23,0,.45,0,.68-.1a0,0,0,0,0,0-.09c-.2,0-.4.06-.6.09l0,0c.28,0,.55-.06.82-.11a0,0,0,0,0,0-.09c-.25,0-.5.07-.75.1l.17-.28a3.13,3.13,0,0,0,.78,0,0,0,0,0,0,0-.09,2.46,2.46,0,0,1-.55,0c.23,0,.46,0,.69-.06a0,0,0,0,0,0-.09c-.26,0-.52,0-.79.07l.29-.45a4.72,4.72,0,0,0,.83,0c.06,0,0-.1,0-.09a4.62,4.62,0,0,1-.74,0,4.54,4.54,0,0,0,.65,0c.06,0,0-.1,0-.09a4.79,4.79,0,0,1-.6,0l.19-.3a5.54,5.54,0,0,0,.76,0c.06,0,0-.09,0-.09a5.4,5.4,0,0,1-.69,0h0c.26,0,.53,0,.79,0,.06,0,0-.09,0-.09l-.72,0,.07-.11c.27,0,.55,0,.82,0,.06,0,0-.09,0-.09-.25,0-.5,0-.75,0l.05-.08a5.1,5.1,0,0,1,.86,0c.06,0,.06-.09,0-.09-.27,0-.53,0-.8,0l.14-.22a2.29,2.29,0,0,0,.74,0,0,0,0,0,0,0-.09,2.07,2.07,0,0,1-.67,0l0-.06.87.07a0,0,0,0,0,0-.09l-.82-.06.18-.28a8.21,8.21,0,0,0,.94.09,0,0,0,0,0,0-.09c-.3,0-.6,0-.89-.09l0-.06,1.09.08a0,0,0,0,0,0-.09l-1-.08.15-.23.94.1c.06,0,.06-.08,0-.09l-.89-.09.11-.18a3.84,3.84,0,0,0,1.18.13,0,0,0,0,0,0-.09,4.13,4.13,0,0,1-1.14-.12l.07-.12a11.88,11.88,0,0,0,1.27.17c.06,0,.06-.09,0-.09-.41,0-.81-.09-1.22-.17l.05-.08a12.1,12.1,0,0,0,1.26.17,0,0,0,0,0,0-.09c-.41,0-.81-.09-1.21-.17l0,0c.48.05,1,.14,1.44.18a0,0,0,0,0,0-.09c-.47,0-.93-.12-1.39-.18l.1-.17c.41.06.83.14,1.24.18a0,0,0,0,0,0-.09c-.4,0-.8-.11-1.2-.17l.1-.15c.5.06,1,.17,1.5.21a0,0,0,0,0,0-.09c-.48,0-1-.15-1.44-.21l.09-.13c.55.07,1.08.25,1.64.31.06,0,.06-.08,0-.09-.54-.06-1.05-.23-1.59-.3l.13-.18c.55.08,1.08.27,1.64.33a0,0,0,0,0,0-.09c-.54-.06-1.05-.24-1.59-.33l.08-.11c.61.14,1.21.29,1.82.41.06,0,.06-.08,0-.09-.6-.12-1.18-.26-1.77-.4l.09-.12c.61.12,1.22.26,1.83.4.06,0,.09-.07,0-.08-.6-.14-1.2-.28-1.8-.4l.07-.1a5.19,5.19,0,0,0,.57.13c.48.11,1,.17,1.45.31.06,0,.09-.07,0-.09-.35-.1-.72-.15-1.07-.22a7.38,7.38,0,0,1-.93-.2l.2-.29c.66.21,1.36.28,2,.47.05,0,.09-.07,0-.08-.66-.19-1.35-.26-2-.46l.18-.27a8.39,8.39,0,0,0,1.42.31C590,393.79,592,394.41,593.83,395.3Zm-6.2-2.36a7.77,7.77,0,0,1-1-.24l.07-.1Zm-1.3-.64s0,0,0,0c-2.21,3-4,6.29-6.2,9.31q-1.28,1.77-2.47,3.59c1.59-3.3,3.18-6.6,5-9.8,1.72-3,3.33-6.1,4.87-9.21C587.05,388.24,586.7,390.27,586.33,392.31Zm-3.47,7c.06,0,.08.08,0,.09l-.54,0c-.06,0-.08-.08,0-.09Zm8.28,5.61a8.94,8.94,0,0,1-1.91-1.57s0-.1.07-.06a8.76,8.76,0,0,0,1.89,1.56C591.25,404.91,591.19,405,591.15,405Zm-2.24-1.52a0,0,0,0,1,.05-.07,13.64,13.64,0,0,0,2,1.57c.05,0,0,.11,0,.08A13.56,13.56,0,0,1,588.9,403.43Zm1.44,1.79a10.06,10.06,0,0,1-1.84-1.45s0-.1.07-.06a10,10,0,0,0,1.83,1.44A0,0,0,0,1,590.34,405.23Zm-18.11,12a16.65,16.65,0,0,0-1.51,1.68c-.34.38-1-.11-.62-.49a18,18,0,0,1,1.67-1.82C572.14,416.3,572.61,416.94,572.23,417.27Zm-8.38,10.82a7.21,7.21,0,0,1-1.4,1.74c-.34.38-1-.12-.62-.49a6.68,6.68,0,0,0,1.29-1.57C563.33,427.3,564.06,427.62,563.84,428.08Zm-8.28,13.62a4.23,4.23,0,0,0,.87-2.36c0-.51.78-.59.79-.08a5.11,5.11,0,0,1-1,2.93C555.89,442.62,555.27,442.13,555.56,441.71Zm-4.87,14.73a16.78,16.78,0,0,0,1.08-2.89c.12-.49.9-.37.78.13a17.73,17.73,0,0,1-1.14,3.08A.4.4,0,0,1,550.69,456.44Zm.2,11.22c-.18.81-.29,1.64-.47,2.45-.11.5-.89.38-.78-.13.18-.81.29-1.64.47-2.45C550.22,467,551,467.16,550.9,467.66Zm-4.11,17.63,1.07-3.82c.14-.49.92-.37.78.13l-1.07,3.82C547.44,485.91,546.65,485.79,546.79,485.29Zm-10.73,15.09a13,13,0,0,1,3.45-3.09c.43-.27.91.37.47.64a12.4,12.4,0,0,0-3.3,2.94A.4.4,0,0,1,536.06,500.38Zm-10.52,7.17c.51,0,.59.76.08.79a9.52,9.52,0,0,0-2.8.54.4.4,0,0,1-.29-.74A10.2,10.2,0,0,1,525.54,507.55Zm-16.6,4.29c.48.19.16.91-.32.73s-.86-.19-1.28-.36-.16-.91.32-.73S508.53,511.67,508.94,511.84Zm-10.56-1.77a26,26,0,0,0,2.44,1.89c.42.3-.08.91-.49.62a26.18,26.18,0,0,1-2.44-1.89C497.51,510.35,498,509.72,498.38,510.06Zm-8.52-8.23a8,8,0,0,0-1.36-3.5c-.29-.42.35-.9.64-.47a8.74,8.74,0,0,1,1.52,3.9A.4.4,0,0,1,489.87,501.84Zm-2.34-14a12.72,12.72,0,0,1-1-3.41.4.4,0,0,1,.79-.08,12,12,0,0,0,1,3.2A.4.4,0,0,1,487.53,487.81Zm-2.21-12.42a10.25,10.25,0,0,0-.56-5,.4.4,0,0,1,.74-.29,11.11,11.11,0,0,1,.61,5.37A.4.4,0,0,1,485.31,475.4Zm-1.82-17c.5,1.34.6,2.79,1,4.14.16.48-.58.77-.74.29-.44-1.35-.54-2.8-1-4.14A.4.4,0,0,1,483.49,458.44Zm.37-10.58c.36.36-.13,1-.49.62-1-1.06-2.13-2.09-3.2-3.12.6,2.1,1.21,4.19,1.81,6.28.14.49-.6.78-.74.29-.74-2.56-1.49-5.12-2.21-7.68l0,0a40.15,40.15,0,0,1-1.46,5.79c-.16.49-.89.16-.73-.32a38.59,38.59,0,0,0,1.51-6.18.38.38,0,0,1,.55-.29c.15-.28.6-.37.71,0l.17.61C481.1,445.18,482.51,446.49,483.87,447.86Z" transform="translate(-476.78 -383.86)"/></svg>