<svg id="Layer_1" data-name="Layer 1" xmlns="http://www.w3.org/2000/svg" viewBox="0 0 70.06 66.23"><defs><style>.cls-1{fill:#101063;}</style></defs><title>icon-05</title><path class="cls-1" d="M534.47,272.79a.33.33,0,0,1,.05.6c-1.29.86-2.59,1.71-3.94,2.48-.4.23-1.35,1-2,.81a.26.26,0,0,1-.24-.12l-.26.2c-.34.27-.82-.18-.49-.49l.06,0a.38.38,0,0,1-.11-.14.36.36,0,0,1-.06-.63,24.68,24.68,0,0,1,6.55-3.08A.32.32,0,0,1,534.47,272.79Zm-4.18,21.36.92,0c1.49-.1,3-.3,4.47-.33a.35.35,0,0,0,.33-.26l0-.19a.37.37,0,0,0,0-.13h.09c.42-.06.27-.65-.09-.68a32.53,32.53,0,0,0-5.89,0,.35.35,0,0,0-.27.19h-.49a.35.35,0,0,0,0,.7h.3a.35.35,0,0,0,0,.37.49.49,0,0,0-.05.23A.36.36,0,0,0,530.29,294.15Zm-2.89,13.58h.07c-.17-.18-.17-.54.12-.59s.68-.08,1-.12a.31.31,0,0,1,.22-.09h.53a25.39,25.39,0,0,1,5.74.19h.1a.3.3,0,0,1,.25.37h.42a.35.35,0,0,1,0,.7H535a.35.35,0,0,1-.26.57h-.63a.32.32,0,0,1-.32.37,16.38,16.38,0,0,1-4.11-.43,17.14,17.14,0,0,1-2.44-.34C526.78,308.31,527,307.64,527.4,307.74Zm1.44,0,.1,0,.73,0v-.05l-.54-.06Zm-54.66,2.49c-.36.11-.31.73.09.68l.09,0h0l.53-.09-.06,0a.3.3,0,0,0-.17.25l-.31.09a.35.35,0,0,0,.18.67,12.62,12.62,0,0,0,1.84-.52.35.35,0,0,0,.69,0s1.51-.52,1.84-.62c.82-.26,1.65-.49,2.47-.76a.35.35,0,0,0-.18-.67l-.34.06.42-.19c.39-.17.09-.7-.27-.63l-.58.13a.33.33,0,0,0-.37-.13,30.12,30.12,0,0,0-3.14,1C476,309.69,475.1,309.93,474.18,310.21Zm40.31-40.75c-.14.37.47.62.63.27l.51-1.08,0-.07a.37.37,0,0,0,.42-.09c.14.18.43.23.54,0,.49-1.15,1.29-2.14,1.88-3.23a10.89,10.89,0,0,0,1.2-2.18c.13-.34-.35-.56-.58-.34l-.17.18a.44.44,0,0,0-.26.05.29.29,0,0,0-.39,0l-.07.05h0a9.72,9.72,0,0,0-3.63,5.72.36.36,0,0,0,.07.28c-.06.13-.11.26-.16.4Zm-16.67-7.3-.19-.39c-.18-.38-.69-.09-.63.27.44,2.76.59,6,2.37,8.26a.35.35,0,0,0,.58-.15,8.9,8.9,0,0,0,.18-1,.27.27,0,0,0,.09-.23c0-.13,0-.25-.05-.38s0-.14,0-.2a.27.27,0,0,0,.17-.3s0-.06,0-.09h0v0a7.05,7.05,0,0,0-.17-.87,18.62,18.62,0,0,0-1.21-4.94.35.35,0,0,0-.68.09s0,0,0,.07A.32.32,0,0,0,497.83,262.15Zm-19.47,8.19,0,.05a.32.32,0,0,0,.32.24,14.48,14.48,0,0,0,2,1.37,11,11,0,0,0,2,1l.21.1a.34.34,0,0,0,.12.11,2.11,2.11,0,0,0,.72.29.33.33,0,0,0,.32-.09c.15,0,.29.07.44.09a.38.38,0,0,0,.42-.24.36.36,0,0,0,.11-.65c-2.24-1.69-4.48-3.46-7.18-4.34a.35.35,0,0,0-.42.39.34.34,0,0,0-.16.57l.57.48Q478.05,270.06,478.36,270.34ZM476.17,292h-2a20.75,20.75,0,0,0-5.69,0l-1.65,0a.38.38,0,0,0-.34.34.36.36,0,0,0,.12.6,7.29,7.29,0,0,0,1.32.39,12.27,12.27,0,0,0,5.22.2,16.4,16.4,0,0,0,3.54-.34.35.35,0,0,0-.09-.68h-.09A.34.34,0,0,0,476.17,292Zm38.9-10.26a12.73,12.73,0,0,1,5.51,9.45c.55,4.86.45,9.64-3.35,13.18-2.32,2.16-5.53,4.06-5.51,7.57,0,1.34-.18,2.32-1.54,2.82l-.25.08a3,3,0,0,1-.59,3.54c1.79,1.82.65,3.4-1.43,4.37v0c.06,1.6-.42,4.63-2.42,5-2.4.43-3.84-2-3.81-4.12-2.15-.38-3.5-1.69-2.12-4.28a.33.33,0,0,1,.2-.17c-1.06-.89-.86-2.57-.65-3.78a10.17,10.17,0,0,1-1.87-.73.32.32,0,0,1-.17-.39.35.35,0,0,1,0-.07,12,12,0,0,0-2.86-8.14,62.89,62.89,0,0,1-4.74-5.34c-2.79-4.05-3.69-9-.71-13.26C494.34,279.48,506.58,276,515.08,281.74Zm-7.9,41.31a11.77,11.77,0,0,1-4.73.68,3.26,3.26,0,0,0,1.32,2.91,1.75,1.75,0,0,0,2.23,0A5.08,5.08,0,0,0,507.18,323.06Zm-1-1.86a.13.13,0,0,1-.07-.24,16.39,16.39,0,0,0,3.17-1.28,1.87,1.87,0,0,0-.19-.37,10.18,10.18,0,0,1-2.51,1.11.13.13,0,0,1-.07-.24A10.05,10.05,0,0,0,509,319.1a3.35,3.35,0,0,0-.24-.26,8.43,8.43,0,0,1-3.58,1.1c-1.57.16-3.47.37-4.91-.42a.35.35,0,0,1,0,.22c-2.34,4.4,6.19,3.85,8.58,1.58a6.78,6.78,0,0,1-2.38,1,.13.13,0,0,1-.07-.24,5.38,5.38,0,0,0,2.94-1.55.09.09,0,0,1,.05,0v0a9.92,9.92,0,0,1-3.81,1.55c-.16,0-.23-.22-.07-.24a9.9,9.9,0,0,0,3.93-1.65,1.37,1.37,0,0,0,0-.22A16.61,16.61,0,0,1,506.21,321.2Zm.18-3.61c.87-.18,2.66-.32,3.13-1.25,0-.06,0-.13,0-.19a7.19,7.19,0,0,1-2.8,1.14c-.16,0-.22-.21-.07-.24a6.63,6.63,0,0,0,2.84-1.17,3.47,3.47,0,0,0-.1-.41,1.86,1.86,0,0,1-1,.69,12.25,12.25,0,0,1-1.87.51c-.16,0-.22-.21-.07-.24a12.53,12.53,0,0,0,1.37-.34c.41-.13,1.27-.33,1.41-.82a.11.11,0,0,1,.06-.07l0-.12a18.93,18.93,0,0,1-9.39.53c-.25,1.52-.27,3.29,1.66,3.6a12.73,12.73,0,0,0,3.27,0c1.68-.17,3.71-.62,4.46-1.84a6.49,6.49,0,0,1-2.44,1c-.16,0-.22-.22-.07-.24a6.94,6.94,0,0,0,2.7-1.15,1.58,1.58,0,0,0,.05-.16c-.72.7-2.17.84-3,1C506.3,317.86,506.24,317.62,506.39,317.59Zm-18.81-23.91c.31,5.45,4.44,8.36,7.52,12.32a13,13,0,0,1,2.71,8.13A15.28,15.28,0,0,0,502,315c-.52-5.7-4.35-10.58-4.75-16.34-.1-1.51,0-3,1.43-3.82a2.15,2.15,0,0,1,2-.05,3,3,0,0,1,3.11.33,6.31,6.31,0,0,1,1.31-1.34,2.25,2.25,0,0,1,2.14-.22,2,2,0,0,1,2.39,0c1.15.92,1,2.46.85,3.78-.34,2.65-1.16,5.16-1.43,7.85-.31,3.07-1.29,6.1-1.52,9.15,0,.48-.78.48-.75,0,.23-3.05,1.19-6.07,1.52-9.15.25-2.38.8-4.64,1.27-7,.19-1,.66-2.8,0-3.7a3.88,3.88,0,0,0-1.36-.26,2.38,2.38,0,0,1,.24,2.76c-1.76,3.16-4.16-.19-2.27-2.49a4.72,4.72,0,0,1,.43-.45,2.85,2.85,0,0,0-2.23,1.53l.11.11c.56.64,1.07,1.69.32,2.43-.36.35-1.33,1.17-1.86.62s-.26-1.91.41-3a3.54,3.54,0,0,0-1.87-.44,2.44,2.44,0,0,1,.5.71c1.26,2.86-2.35,4-2.28.66a2.48,2.48,0,0,1,.38-1.34,1.79,1.79,0,0,0-2,1.49,9.65,9.65,0,0,0,.27,3.72c1.13,4.91,4,9.44,4.42,14.49a14.24,14.24,0,0,0,6.51-.73.42.42,0,0,1,.23-.12,2.51,2.51,0,0,0,1.53-2.32c-.08-3.84,3.27-5.67,5.73-8.1a10.92,10.92,0,0,0,1.79-2.34c-.37.35-.69.75-1.09,1.07s-.7.48-1,.73a15.5,15.5,0,0,1-2.66,1.53c-.14.07-.27-.15-.12-.22a22.64,22.64,0,0,0,2.92-1.72c.83-.55,1.47-1.44,2.31-2,.17-.34.33-.69.46-1a17.69,17.69,0,0,1-3.87,3c-.14.08-.27-.14-.13-.22a18.57,18.57,0,0,0,4.19-3.36c.06-.17.11-.33.16-.5a9.8,9.8,0,0,1-1.7,1.62,30.56,30.56,0,0,1-3,1.66c-.14.08-.27-.14-.13-.22a27.72,27.72,0,0,0,2.74-1.47,13,13,0,0,0,2.24-2.14c.07-.27.12-.54.17-.81a18.5,18.5,0,0,1-1.58,1.55,16.29,16.29,0,0,1-2.46,1.87c-.14.09-.26-.13-.13-.22a14.78,14.78,0,0,0,2.63-2A15,15,0,0,0,520,297q0-.32.08-.64a23.3,23.3,0,0,1-3.51,3.5c-.12.1-.3-.07-.17-.18a22.67,22.67,0,0,0,3.73-3.77q0-.24,0-.48a19.56,19.56,0,0,1-3.08,3.18c-.12.1-.3-.08-.18-.18a19.45,19.45,0,0,0,3.23-3.35l0,0c0-.12,0-.24,0-.36a14.13,14.13,0,0,1-2.56,2.75c-.12.1-.3-.07-.18-.18a12.76,12.76,0,0,0,2.74-3c0-.16,0-.32,0-.48a16.52,16.52,0,0,1-1.29,1.54,12.55,12.55,0,0,1-2.06,2c-.13.1-.25-.12-.13-.22a11.9,11.9,0,0,0,2-2,9.84,9.84,0,0,0,1.45-1.84s0-.08,0-.11a17.41,17.41,0,0,1-3.17,3.32c-.12.11-.29-.07-.18-.18,1.14-1.09,2.57-2.13,3.31-3.57,0-.16,0-.31,0-.47a19.12,19.12,0,0,1-2.71,2.71c-.12.11-.3-.07-.18-.18a16.46,16.46,0,0,0,2.83-2.92c0-.18,0-.35-.08-.53a20.41,20.41,0,0,1-2.29,2.62c-.12.11-.3-.07-.18-.18a21.27,21.27,0,0,0,2.4-2.76l-.06-.32a14.88,14.88,0,0,1-1.75,2.05.13.13,0,0,1-.18-.18,13.48,13.48,0,0,0,1.86-2.21c-.07-.31-.14-.62-.22-.92a11.58,11.58,0,0,0-7.51-8.37,19.87,19.87,0,0,0-15,.39C492.49,283.6,487.28,288.2,487.58,293.68Zm12.87,3.47c.52,1.88,1.24-.58.19-1.45A1.39,1.39,0,0,0,500.45,297.14Zm3.44-.77a6.05,6.05,0,0,0-.38.92C503.11,298.64,504.45,297.37,503.9,296.37Zm2.32-.39,1,1.42c.59-.72.89-2.28.12-3A2.18,2.18,0,0,0,506.22,296Zm-13.48-4.65a2.07,2.07,0,0,1-.56-2c.38-2.48,2.94-3.83,4.93-4.91a.35.35,0,0,1,.24,0c.61-.26,1.49-.52,1.8.16a2.29,2.29,0,0,1-.4,2.09,15.11,15.11,0,0,1-2,2.16,17.25,17.25,0,0,1-2.2,2.06C494.16,291.16,493.31,291.74,492.74,291.33Zm.29-.75c.26.39,1-.26,1.27-.44,1-.8,1.81-1.76,2.72-2.65a5.54,5.54,0,0,0,1.29-1.6c.09-.2.36-.75.19-1s-1,.22-1.15.29a.38.38,0,0,1-.19,0,9.54,9.54,0,0,0-3.68,2.8C493.08,288.65,492.55,289.85,493,290.58Zm-4.76,18.31c0-.17,0-.33,0-.5s-.26-.16-.25,0,0,.33,0,.5S488.29,309,488.27,308.88Z" transform="translate(-466.34 -261.58)"/></svg>