<svg id="Layer_1" data-name="Layer 1" xmlns="http://www.w3.org/2000/svg" viewBox="0 0 63.55 87.85"><defs><style>.cls-1{fill:#fff;}</style></defs><title>icon-01</title><path class="cls-1" d="M632.38,411.84c.61-1.55-.68-.95-1.33-.92a3,3,0,0,0-2.46,2.49c-.22,1.17,1.65,4,2.37,4s.48-.54.93-3C631.91,414.28,632.31,412,632.38,411.84Zm-1.64,3.94a3.55,3.55,0,0,1-1.23-2.42c-.09-1.22,2.4-2.59,2.11-1.41-.09.36-.22.77-.36,1.54C631.19,413.88,631,415.72,630.74,415.78Zm3.41,5.26c-.65.07-1.22-.36-1.4.46s-.76,4.24-1.61,9c-.08.43.31.41,1.65.65,5.44.94,6.32-3.86,5.22-6.11C637.43,424.12,635.17,420.92,634.15,421Zm2.12,9.23a4.87,4.87,0,0,1-4,0c-.39-.19.89-7.46,1.28-8.32s5.07,3.27,3.93,6.47C637.33,428.75,636.88,430,636.26,430.27Zm-1.34-11.76c-.51-.25-.82-.3-.77-.58.69-3.07,1.1-3.2,1.22-4.92.06-.92.32-.86.89-.45a10.84,10.84,0,0,1,1.83,1.87c.1.19.26.41.46.35.43-.14,2.51-1.45,2.18-2-.79-1.38-.79-2.19-3.82-4.38-.33-.23-.19-.16-.9-.37s1-3.39-.36-3.53c-.55-.06-2.32-.49-2.66,0s-.07.64-.2,1.38c0,.23-.29,1.2-.3,1.2-.08.24-.13.38-2.19,1.13A5.11,5.11,0,0,0,627,411.4c-1.5,3.57-.33,4.45.42,6,.12.24,0,.11.62.69,1.33,1.26.06.42,1.85,1.71.57.41-.77,4.31-.87,4.68-.86,3.13-.3,4.64-.94,4.48-1.68-.41-3.58-2.48-3.45-4.28,0-.35-.23-.52-1,.12-1.53,1.27-2.25,1.75-1.94,2.26a1.38,1.38,0,0,0,.3.74c.15.2,1.63,2.4,1.72,2.63.31.77,2.69,2.3,3.49,2.54.64.2,1-.14.45,2.05-.38,1.45-.62,1.71-.05,1.66,1-.07,3.37.69,3.85-.05a1.66,1.66,0,0,0,.2-.8c0-.58.19-1.14.25-1.71,0-.26.14-.11.86-.13a10.87,10.87,0,0,0,4-.46,6.54,6.54,0,0,0,3.69-2.88C642.4,427.28,640.35,421.17,634.93,418.5Zm5,11.69c-.95,2.48-4.2,3.48-6.8,3.17a3.14,3.14,0,0,1-1.17-.3.57.57,0,0,0-.86.51c-.14,3.24-.41,2.73-1.47,2.61-1.27-.14-1.5.11-1.35-.84a14.87,14.87,0,0,1,.59-2.19c.13-.42,0-.45-.11-.49a7.32,7.32,0,0,1-5-3.87c-.43-.64-1.41-1.92-1.11-2.27,2.4-2.8,0,1.11,4.49,2.88.64.25,2,.85,2.06,0,0-.29.1-2.25.14-2.49.69-4.13,2.08-7.09,1.49-7.44-.74-.45-.67-.38-1-.71-1.56-1.68-1.47-1.56-1.7-2a6.1,6.1,0,0,0-.42-.83c-1.36-1.74.45-8.07,4.75-7.6.18,0,.65-.18.74-.83l.28-1.18c.27-1.5.17-1.53,1-1.4,1,.16,1-.07.67,1.51-.21,1-.56,2.08.67,2.25a8.37,8.37,0,0,1,4,4.23c.09.23-.09.28-.26.39l-.58.44a28.7,28.7,0,0,0-2.55-2.07c-.53-.35-.53-.53-1.09-.56s-1,2.36-1.38,4.53c-.09.51-.82,1.69-.58,2.92,0,0,2,1.18,2.07,1.21C638.89,422.06,641.39,426.42,639.94,430.2Zm-37-1a8.32,8.32,0,0,0-1.73-.08c-.66.3-.29.33-.64.81a6.77,6.77,0,0,1-1.37,1.27c-.36.15-.57.59-.35.8a2.86,2.86,0,0,0,.71.67.78.78,0,0,0,.53-.21c.09-.08.16.21.09.43-.89,2.82-1.68,2.42,0,2.88l1.08.08c1.16,0,.16-.65,1.64-4.74C603.65,428.89,604,429.55,602.92,429.18Zm-.34,1c-.46.57-1.14,3.91-1.4,4.78-.09.31-.6.15-.9,0s-.1-.42,0-.69a15,15,0,0,1,.86-2.43c.3-.38.28-.71.09-.81s-.38,0-.57.19a5.18,5.18,0,0,1-.42.45c-.33.31-.85.08-.45-.31,1.52-1.44,1.23-1.69,2.49-1.63C602.57,429.8,602.77,430,602.58,430.2Zm3.79,16.19c-2.05-.18-1.49-.18-1.94.65a1.3,1.3,0,0,1-.44.57s-.49.51-.64.64c-.38.33-1,.38-1.19.55-.36.31.09.63.29,1.34s1.41-.5,1.3.14c-.22,1.26.2.63-.76,2.37-.13.22-.2.44,0,.53.82.31.59.09,1.3.36a.52.52,0,0,0,.71-.26,1.72,1.72,0,0,0,.14-.65,43.2,43.2,0,0,1,1.64-5.34c.09-.17.25-.27.21-.44C606.93,446.46,606.77,446.43,606.37,446.39Zm-1.15,3.67c-.37.92-.45,2.84-1,2.8s-.63-.25-.44-.46.47-1.3,1-3.37c0-.18,0-.26-.18-.27-.45,0-.29.1-1.32.8-.21.14-.46-.21-.39-.44s.31-.16.43-.25a7.8,7.8,0,0,0,1.6-1.72c.22-.35,1.31-.18,1.11.19C605.48,448.36,605.63,449,605.22,450.06ZM607,436.72c1.85-2.84.71-4.7.22-7.11a5.8,5.8,0,0,0-1-1.42c-1.12-1.18-1.08-1.67-3.08-2.33-7-2.31-10.09,7.87-8.54,10a13.17,13.17,0,0,0,1,1.44,11.25,11.25,0,0,0,3.81,2.23,9.83,9.83,0,0,0,1.89.33A6.45,6.45,0,0,0,607,436.72Zm-8.47,1.8a12.72,12.72,0,0,1-1.91-1.38,4.37,4.37,0,0,1-1.48-1.95,3.76,3.76,0,0,1-.31-1.24c-.45-2.62,2.57-8.7,7.18-7.59a3.79,3.79,0,0,1,2.68,1.35,7.74,7.74,0,0,1,1.3,1.37,7.52,7.52,0,0,1,1.37,4.26c-.05,1.29-.35,3-1.29,3.91-1.58,1.43-1.81,1.55-4.29,2.1A11.29,11.29,0,0,1,598.56,438.52Zm6-1.74a5.63,5.63,0,0,0,1.76-2.64,5.46,5.46,0,0,1,.09-.69,2.91,2.91,0,0,0,0-1.42c-.16-1.09-.14-1.54-.55-2l-.6-.75a3.17,3.17,0,0,0-2.16-1.71,7.85,7.85,0,0,0-4.33.69,7.68,7.68,0,0,0-1.68,1.3,8.2,8.2,0,0,0-1.41,3.87c0,1.12-.1,1.77.89,2.72A4.65,4.65,0,0,0,600,438a2.82,2.82,0,0,0,1.22.13C602,438,602.43,438.32,604.56,436.78Zm-2.06.64c-1,.4-1.94.1-3.48-.34a2.28,2.28,0,0,1-1.43-.89c-.75-1.07-1.19-1.2-1.39-2.27,0-.25.3-2,.33-2.22a5.49,5.49,0,0,1,.56-1.1,3.39,3.39,0,0,1,1-1.12,4.19,4.19,0,0,1,2.71-1.27c.08,0,.55,0,.6-.06a1,1,0,0,1,.66,0c.38.07,1.18,0,1.65.47.63.6.57,1.11,1.09,1.48C605.7,430.75,607.1,435.6,602.5,437.42Zm7.75,8.44c-1.23-1.3-1.61-2.09-3.62-2.82a4.74,4.74,0,0,0-2.32-.41c-1.23.1-4.48-1-6.79,5.66-.48,1.08.55,5.53,2.84,6.78a13.51,13.51,0,0,0,4.83,1.15,5.32,5.32,0,0,0,4.87-2.34,8.61,8.61,0,0,0,1.55-3.43A9,9,0,0,0,610.25,445.85Zm-2.14,9.26a3.92,3.92,0,0,1-1.17.38c-1,.36-3.44,0-5-.57-.67-.23-1.5,0-3.22-3.19a6.2,6.2,0,0,1-.4-1.43,5.32,5.32,0,0,1,1.19-4.62c.31-.31,1.49-2.47,3.25-2.45.38,0,2.17,0,2.54.07a9.29,9.29,0,0,1,2.9,1.25c1,.77,1.83,1.49,2.58,4.11a7.14,7.14,0,0,1-.18,3A5.84,5.84,0,0,1,608.12,455.11Zm31.75-60.43c.38.08.4-.8.5-1.39.29-1.73,1.23-2.64,1.57-6.33a.09.09,0,0,1,.17,0c.54,1.41,0,3.06.82,2.77s-.13-3.09-.08-3.59c.07-.73-.34-1.54-.91-1.08-.74.58-.85,1.16-1,3.52C640.85,390.53,639,394.51,639.87,394.69Zm-30.75,51.73c-1.68-2.23-4.87-2.69-5.79-2.25-1.18.56-3.32,1.25-3.93,4.12-.12.58-.79,1.8.76,4.31,1.9,3.09,8.48,3.18,9.75-1.05a4.5,4.5,0,0,0,.42-2.11A5.83,5.83,0,0,0,609.12,446.41Zm-2.25,7.67c-1,.48-2.49.08-3.53-.22a5.79,5.79,0,0,1-2.26-1.51c-1.6-2.37-1.65-3.62-.32-5.75a4.29,4.29,0,0,1,4.11-1.84,4.08,4.08,0,0,1,2.8,1.31,6.42,6.42,0,0,1,1.18,1.24,2.62,2.62,0,0,1,.67,1.41,5.26,5.26,0,0,1-.21,2.69A3.54,3.54,0,0,1,606.87,454.08Zm26.68-65c.05-.06.59-.7.65-.67l-.28.75c-1.05,2.75-3,6.37-2.13,6.2.39-.08.24-.09.39-.34.19-.43.25-.73.68-1.94s1.34-2.72,1.74-4c.31-1,2.32-4.13,2.45-4.79.08-.45-.67-.37-1,.44-.37,1-2.74,3.63-3.19,4.18-.14.16-.25.34-.11.5S633.32,389.29,633.55,389Zm21.1,38c-.18-1.23-.45-2-.48-2.4a53,53,0,0,0-3.28-13.06c-.17-.44-2.46-10.18-3-10.83a1.18,1.18,0,0,1-.17-.43c-1-3.27-.4-2.35-1.11-3.25-.09-.12-1.31-7-1.34-7.17-.46-2.71-1-5.68,1.07-4.23.8.55,1.82,4.34,2.71,6.52a4.88,4.88,0,0,0,1.39,2.69,7.58,7.58,0,0,0,1.92,1.56c1.13.51,4.77,1.46,5.25,1.06s-.06-.53-.5-.67c-4.11-1.31-5-2.33-5.92-4.6-1.11-2.82-.14-4.52-1.91-6.2-.1-.1-.09-.17,0-.21a11.21,11.21,0,0,1,1.91,1.06,12,12,0,0,0,2.2.81,4,4,0,0,0,3.3-1.54.62.62,0,0,1,.16-.16c1.15-.89.7-4.77-3.59-4.85-4.71-.08-4.79.57-6.59,1.26a.1.1,0,0,1-.12-.13c.4-1.17,4.91-7.45,8.15-10.8.51-.53.4-.91.17-1.07-.59-.4-1.38-.23-2.51-.34-1.48-.14-3.86,1-4.29.09-.83-1.8.43-1.3-5.69-1.76a7.11,7.11,0,0,0-2.88.68c-.27.08-.29.3-.59.39s-.56.52-.8,1a.11.11,0,0,1-.13.05c-1.23-.49-4.33.08-6,.75a1.64,1.64,0,0,1-.67.22c-.17,0-.18.13-.21.28s.19.21.26.41l.83,2a11.32,11.32,0,0,0,.45,1.44c.08.12.82,2.37.83,2.52,0,.38.61,1.87.65,2.25a2.15,2.15,0,0,0,.06.58.16.16,0,0,1,0,.21c-.67.43-.14,2.1-.26,2.46-.68,1.94-7.67,9.39-12,13a40.39,40.39,0,0,0-8.22,9.25c-7.54,11-6.35,13.71-6.69,15a.44.44,0,0,0,.3.47,5.62,5.62,0,0,1,.72,3.24,1.25,1.25,0,0,0,0,.87c.06.11,0,.24-.14.31-3.18,1.63-1.27,1.58-.95,1.35a3.1,3.1,0,0,1,.6-.41c.59-.24.57-.34.77-.09a4.53,4.53,0,0,0,1.24.88c.44.32-1.77,1.16-.9,1.57a.66.66,0,0,0,.82-.25c.17-.22.89-.91,1.14-.78.52.25,1.34.65,1.17,1.23s.08,1,.08,1.39c0,.62.86.33.5,1a9.64,9.64,0,0,0-1.67,4.19,6.25,6.25,0,0,0,1.73,3.74,12.63,12.63,0,0,0,4,2.43c.18.08-.09,1.77-.39,1.75s-1.61.1-1.74.58c-.42,1.48,5.83,4.84,6.89,5.41a32.36,32.36,0,0,1,3.26,1c.42.18.36.29,4.8.72a48.12,48.12,0,0,0,6.22.08c3.26-.28,5.46-.55,8.55-3a31.8,31.8,0,0,0,4.47-3.77c3-3.12,5-10,5.18-10.36A29.13,29.13,0,0,0,654.65,427ZM646.87,383c.31-.09.17-.19.47-.32a13.29,13.29,0,0,1,2.06-.77,14.25,14.25,0,0,1,5.24.1c.85.28,2.09,1.54,2,2.34-.1.57,0,.9-.38,1.45-2.61,3.43-6.15-.83-7.39-1,2.76.57,4.64,2.4,6.61.41.31-.31.15-2.18-2-2.43,0,0-2.07-.28-2.26-.29a11.73,11.73,0,0,0-3.49.46c-1.29.32-.35.14-1.28.46C646.36,383.17,646.7,383,646.87,383Zm1.18.85c-.61-.2.78-.65,2.61-.7a2.93,2.93,0,0,1,1.17,0c.36.14,2.83-.28,2.92,1.69,0,.38-.36.42-.9.67s-2.62-.67-3.17-.9S648.36,383.91,648,383.8Zm-1.82.66c.67,0,.67.37,1.27.61a.45.45,0,0,1,.26.23,1.21,1.21,0,0,0,.43.49,4.63,4.63,0,0,1,.5.69c1,1.45.82.88,1.3,4.67a16.21,16.21,0,0,0,1.2,2.79,6.24,6.24,0,0,0,2,1.88.09.09,0,0,1,0,.11c0,.1-.23,0-.36,0-.63-.09-1.91-1.47-2.35-2.14-1-1.58-.38-1.55-1.22-3-.59-1-1.62-4.82-2.13-5.37s-.57-.37-.9-.63a2,2,0,0,0-.41-.27,0,0,0,0,1,0,0C645.84,384.43,646.16,384.47,646.22,384.47Zm-13.85-12c-.07-.15-.3-.51-.25-.66.15-.44,4.17-1.37,5.23-.92.84.37,1.34,0,1.48-.59.44-1.93,8-1.54,8.13-.85.77,2.94,3.06.86,5.26,1.07,1.51.14,2.52-.09,1.7.8a66.8,66.8,0,0,0-8.26,11.16c-.11.22-.34.13-.54,0a38.81,38.81,0,0,0-9.54-1.6c-.14,0-.48.13-.57.05S632.89,373.6,632.37,372.51Zm12.05,12a5.12,5.12,0,0,1-1.48-.34,35.91,35.91,0,0,0-6.37-1.15c-.14,0-1.51,0-1.59,0-.33.07-.37-.29-.4-.49-.05-.43,0-.89.22-.93a4.62,4.62,0,0,1,2.23-.1,20.58,20.58,0,0,1,4.59.84c.69.16,3.35.23,3.34,1,0,.48-.38.34-.41.71C644.53,384.25,644.53,384.42,644.42,384.49Zm-32.8,43.13a.1.1,0,0,1,0-.18c.9-.41,2-.28,2.07-.77.12-.67-2.4.31-2.83.45a1.29,1.29,0,0,1-1-.34c-.17-.16-.38-.16-.49-.34-.37-.59,1.68-.7,2.4-.55.34.08.68-.09.57-.5s-1.75-.28-2.07-.14a3.14,3.14,0,0,1-1.31.22c-.05,0,0-.2,0-.26a10.42,10.42,0,0,0-.56-3.9.25.25,0,0,1,.13-.3c.27-.12,2.18-1.13,2.47-1.17s.39.16.29.61a4.26,4.26,0,0,0,0,2.27,2.59,2.59,0,0,0,.39,1.29c.39.52.86.34,3.45.94a7.64,7.64,0,0,1,2.43,1,.89.89,0,0,1-.08,1,5.18,5.18,0,0,0-1.49,1.63c-.13.23-.56.81-.66.8a4.15,4.15,0,0,0-1.73,1c-.19.17-.62.21-.7,0C612.25,428.5,613.7,428.57,611.62,427.62Zm3.61,10.75a.65.65,0,0,0,.18.41.18.18,0,1,1-.24.25c-3.35-2.61-2.14-4.92-1.26-6.19a4.73,4.73,0,0,1,1.29-1.17c.53-.16.49-.87,1.46,1.18.56,1.19,1.71,1.49,1.63,3.86a.48.48,0,0,1-.59.44c-.41,0-.85-.51-1.67-.26C615.44,437.08,615.13,437.48,615.23,438.37Zm-.09,2.16c-.06,0-2.13-1.52-2.32-1.73a5.48,5.48,0,0,1-1.2-2.55c-.08-.45-.56-.5.77-3.52a10.1,10.1,0,0,1,1-1.56,3.28,3.28,0,0,1,.93-.82c1.19-.68.89-.25,1.1.32.1.27-.14.3-.36.4a4.62,4.62,0,0,0-1.07.85,5.7,5.7,0,0,0-1.38,2,5,5,0,0,0-.29,1.17,3.44,3.44,0,0,0,1.07,3.44,5.4,5.4,0,0,0,2.34,1.57c.34.17.37,0,.55.42S616.09,440.9,615.13,440.54Zm35.92-1.19a23.29,23.29,0,0,1-5.76,7.33c-.37.3-.61.55-1.67,1.41a13.75,13.75,0,0,1-7.64,2.78,11,11,0,0,1-2.74.14c-.44-.07-1.3,0-1.69,0,.15,0-5.27-.43-6.14-.65,0,0-.66-.27-3.77-1.32a30.9,30.9,0,0,1-2.94-1.59c-.7-.32-.63-.11-2.45-1.94-.26-.27-.43-.24-.65-.63,0,0-.22-.28-.23-.31s0-.19.25-.23c.49-.1.55.15,1.25-.54.31-.31.53-1.75.18-3.55A19.78,19.78,0,0,0,616,438c0-.53.64-.59,1-.43,1.21.57,2.75-.71,1.83-2.79-.22-.5-1.4-2.36-1.41-2.36-.22-.58-2-2.51-.83-3.9a8.9,8.9,0,0,1,1.17-1.22,1.25,1.25,0,0,0,.28-1.95,17.58,17.58,0,0,0-5-1.6c-1.12-.09-.87-1.24-1.15-2a4.78,4.78,0,0,1,.23-1.81c.18-.39-.25-.77-.53-.78-2,0-4.16,3.14-3.84-.07.5-4.91,7.06-15.2,14-21.77a43.53,43.53,0,0,0,4.37-3.94c.8-1.24,5.53-5,7.48-8.31l.53-.83c.25-.27.17-.55.6-.58a9.35,9.35,0,0,1,2.64,0c1.06.17,5.82,1,6.73,1.65.33.24.12,1,.15,2a95.82,95.82,0,0,0,2.06,10.51c.13.29.27.11.32.52.24,1.86,1.67,4.77,2.47,8.28a11.4,11.4,0,0,0,.47,1.78c.41.87.14,1.12.43,2,.24.72.26,1.19.55,2.11a54.21,54.21,0,0,1,2.71,10.16,25.1,25.1,0,0,1,.51,4.76,19.38,19.38,0,0,1-.73,6.34A57.2,57.2,0,0,1,651.06,439.35ZM637.1,379c.11.59.47.71.66.53.44-.41.19-.17.28-1.18.36-3.86.55-4.41,1.32-5.58a.25.25,0,0,0,0-.23c-.05-.14-.11-.15-.37-.15s-.45.5-.55.69a7.35,7.35,0,0,0-.65,2.11c-.07.38-.43,3.23-.55,2.34l-1-2.46a.44.44,0,0,0-.57-.24c-.44.18,0,.69.54,2.17C636.53,377.69,637.1,379,637.1,379Zm6.91,1.34a.26.26,0,0,0,.15-.24c0-.51.28-1.05,1.07-2.66,2.63-5.34,3.61-5.65,2.47-5.53C647.29,372,642.08,381.55,644,380.37Zm-32.47,59.09c-1.08-.24-2.4,1.25-4,2.52-.34.27.13.82.95.22.39-.29.86-1.47,2.27-1.9C611.64,440,611.8,439.52,611.54,439.46Zm-.36,4a4.39,4.39,0,0,1,2.09-1.86.49.49,0,0,0,.28-.34c.12-.36-.4-.37-.61-.2a9.06,9.06,0,0,0-.83.47,17.24,17.24,0,0,0-2,2C609.47,444.05,610.37,444.71,611.18,443.49Z" transform="translate(-594.2 -368.36)"/></svg>