<svg xmlns="http://www.w3.org/2000/svg" viewBox="0 0 512 512"><!--!Font Awesome Free 6.7.2 by @fontawesome - https://fontawesome.com License - https://fontawesome.com/license/free Copyright 2025 Fonticons, Inc.--><path d="M0 168v-16c0-13.3 10.7-24 24-24h360V80c0-21.4 25.9-32 41-17l80 80c9.4 9.4 9.4 24.6 0 33.9l-80 80C410 272 384 261.5 384 240v-48H24c-13.3 0-24-10.7-24-24zm488 152H128v-48c0-21.3-25.9-32.1-41-17l-80 80c-9.4 9.4-9.4 24.6 0 33.9l80 80C102.1 464 128 453.4 128 432v-48h360c13.3 0 24-10.7 24-24v-16c0-13.3-10.7-24-24-24z"/></svg>